<svg width="444" height="36" viewBox="0 0 444 36" fill="none" xmlns="http://www.w3.org/2000/svg">
<mask id="path-1-outside-1_734_412" maskUnits="userSpaceOnUse" x="0" y="0" width="444" height="36" fill="black">
<rect fill="white" width="444" height="36"/>
<path d="M21.2381 30.2941L38.5452 2.88235C38.8243 2.43137 39.1035 2.10784 39.3826 1.91176C39.6804 1.71569 39.9688 1.61765 40.2479 1.61765C40.6015 1.61765 40.89 1.77451 41.1133 2.08824C41.3552 2.38235 41.4762 2.7549 41.4762 3.20588V32.3235C41.4762 32.8922 41.4111 33.3824 41.2808 33.7941C41.1505 34.1863 40.8155 34.3824 40.2759 34.3824C39.8106 34.3824 39.4943 34.1863 39.3268 33.7941C39.1779 33.3824 39.1035 32.8922 39.1035 32.3235V6.20588L22.6059 31.8529C22.1593 32.5196 21.7033 32.8529 21.2381 32.8529C20.7356 32.8529 20.2797 32.5196 19.8703 31.8529L3.37274 6.20588V32.3235C3.37274 32.8922 3.289 33.3824 3.12151 33.7941C2.97263 34.1863 2.66557 34.3824 2.20033 34.3824C1.66065 34.3824 1.32567 34.1863 1.1954 33.7941C1.06513 33.3824 1 32.8922 1 32.3235V3.20588C1 2.7549 1.11166 2.38235 1.33498 2.08824C1.5769 1.77451 1.87466 1.61765 2.22824 1.61765C2.48878 1.61765 2.75862 1.71569 3.03777 1.91176C3.33552 2.10784 3.63328 2.43137 3.93103 2.88235L21.2381 30.2941Z"/>
<path d="M84.7662 33.3529C84.7662 33.6471 84.7197 33.8627 84.6266 34C84.5336 34.1373 84.4033 34.2353 84.2358 34.2941C84.0869 34.3529 83.9008 34.3824 83.6775 34.3824C83.4542 34.3824 83.2029 34.3824 82.9238 34.3824H56.8516C56.6655 34.3824 56.5259 34.3726 56.4328 34.3529C56.3398 34.3333 56.2654 34.2843 56.2095 34.2059C56.1723 34.1275 56.1444 34.0294 56.1258 33.9118C56.1258 33.7745 56.1258 33.5882 56.1258 33.3529V3C56.1258 2.70588 56.1258 2.47059 56.1258 2.29412C56.1444 2.11765 56.1816 1.98039 56.2374 1.88235C56.2933 1.78431 56.3863 1.71569 56.5166 1.67647C56.6655 1.63725 56.8795 1.61765 57.1586 1.61765H82.6447C82.9238 1.61765 83.1843 1.61765 83.4263 1.61765C83.6682 1.61765 83.8822 1.64706 84.0683 1.70588C84.273 1.76471 84.4312 1.86275 84.5429 2C84.6545 2.13725 84.7103 2.35294 84.7103 2.64706C84.7103 2.88235 84.6545 3.06863 84.5429 3.20588C84.4312 3.32353 84.273 3.41176 84.0683 3.47059C83.8822 3.52941 83.6682 3.55882 83.4263 3.55882C83.1843 3.55882 82.9238 3.55882 82.6447 3.55882H58.4985V16.4412H82.5051C82.9145 16.4412 83.2588 16.5 83.5379 16.6176C83.8171 16.7353 83.9566 16.9902 83.9566 17.3824C83.9566 17.8137 83.8357 18.098 83.5938 18.2353C83.3704 18.3725 83.0727 18.4412 82.7005 18.4412H58.4985V32.4412H82.7005C82.9796 32.4412 83.2402 32.4412 83.4821 32.4412C83.724 32.4412 83.938 32.4706 84.1241 32.5294C84.3288 32.5882 84.487 32.6863 84.5987 32.8235C84.7104 32.9412 84.7662 33.1176 84.7662 33.3529Z"/>
<path d="M129.48 30.6176V3.85294C129.48 3.55882 129.489 3.28431 129.508 3.02941C129.526 2.7549 129.573 2.51961 129.647 2.32353C129.74 2.10784 129.861 1.94118 130.01 1.82353C130.178 1.68627 130.401 1.61765 130.68 1.61765C131.164 1.61765 131.48 1.84314 131.629 2.29412C131.778 2.72549 131.853 3.2451 131.853 3.85294V32.5C131.853 33.7549 131.536 34.3824 130.903 34.3824C130.475 34.3824 129.945 34.0784 129.312 33.4706L100.532 5.38235V32.3235C100.532 32.8922 100.449 33.3824 100.281 33.7941C100.132 34.1863 99.8345 34.3824 99.3878 34.3824C98.8482 34.3824 98.5039 34.1863 98.355 33.7941C98.2247 33.3824 98.1596 32.8922 98.1596 32.3235V3.52941C98.1596 2.94118 98.262 2.4902 98.4667 2.17647C98.6714 1.86275 98.9505 1.70588 99.3041 1.70588C99.7693 1.70588 100.309 2 100.923 2.58824L129.48 30.6176Z"/>
<path d="M144.213 7.08823H144.492C144.976 7.08823 145.302 7.01961 145.469 6.88235C145.637 6.72549 145.721 6.53922 145.721 6.32353C145.721 6.14706 145.674 5.95098 145.581 5.73529C145.507 5.51961 145.413 5.30392 145.302 5.08823C145.209 4.87255 145.106 4.67647 144.995 4.5C144.883 4.30392 144.799 4.14706 144.744 4.02941C144.65 3.85294 144.604 3.68627 144.604 3.52941C144.623 3.35294 144.613 3.20588 144.576 3.08824C144.576 2.46078 144.781 1.96078 145.19 1.58824C145.6 1.21569 146.074 1.02941 146.614 1.02941C146.893 1.02941 147.172 1.08824 147.451 1.20588C147.73 1.32353 147.972 1.51961 148.177 1.79412C148.4 2.04902 148.577 2.38235 148.707 2.79412C148.856 3.20588 148.931 3.70588 148.931 4.29412C148.931 4.92157 148.847 5.5098 148.679 6.05882C148.512 6.58824 148.261 7.04902 147.926 7.44118C147.609 7.83333 147.219 8.13725 146.753 8.35294C146.307 8.56863 145.786 8.67647 145.19 8.67647C144.874 8.67647 144.548 8.64706 144.213 8.58823V7.08823Z"/>
<path d="M196.436 25.2353C196.436 26.4902 196.222 27.6078 195.794 28.5882C195.366 29.549 194.77 30.3922 194.007 31.1176C193.244 31.8235 192.332 32.4314 191.272 32.9412C190.229 33.4314 189.094 33.8333 187.866 34.1471C186.638 34.4412 185.326 34.6471 183.93 34.7647C182.553 34.902 181.157 34.9706 179.743 34.9706C177.752 34.9706 175.77 34.8627 173.797 34.6471C171.824 34.4314 169.982 34.1667 168.27 33.8529C166.558 33.5196 165.041 33.1667 163.72 32.7941C162.417 32.4216 161.431 32.0686 160.761 31.7353C160.5 31.598 160.305 31.4314 160.175 31.2353C160.063 31.0196 160.007 30.8039 160.007 30.5882C160.007 30.3529 160.063 30.1569 160.175 30C160.305 29.8235 160.491 29.7353 160.733 29.7353C160.845 29.7353 160.975 29.7647 161.124 29.8235C161.85 30.1373 162.892 30.4804 164.25 30.8529C165.609 31.2255 167.144 31.5784 168.856 31.9118C170.587 32.2255 172.42 32.4902 174.355 32.7059C176.309 32.9216 178.245 33.0294 180.162 33.0294C182.023 33.0294 183.79 32.902 185.465 32.6471C187.14 32.3922 188.61 31.9608 189.876 31.3529C191.16 30.7451 192.174 29.9412 192.919 28.9412C193.682 27.9412 194.063 26.7059 194.063 25.2353C194.063 24 193.737 22.9902 193.086 22.2059C192.453 21.402 191.588 20.7647 190.49 20.2941C189.392 19.8039 188.108 19.4412 186.638 19.2059C185.168 18.951 183.604 18.7647 181.948 18.6471C180.31 18.5098 178.617 18.4118 176.868 18.3529C175.118 18.2745 173.416 18.1569 171.759 18C170.122 17.8431 168.568 17.6176 167.098 17.3235C165.627 17.0294 164.343 16.598 163.245 16.0294C162.147 15.4608 161.273 14.7255 160.621 13.8235C159.989 12.9216 159.672 11.7843 159.672 10.4118C159.672 9.15686 159.896 8.04902 160.342 7.08823C160.789 6.12745 161.403 5.30392 162.185 4.61765C162.966 3.91176 163.887 3.33333 164.948 2.88235C166.027 2.41176 167.191 2.03922 168.437 1.76471C169.703 1.4902 171.024 1.29412 172.401 1.17647C173.797 1.05882 175.193 1 176.589 1C178.319 1 180.022 1.08824 181.697 1.26471C183.372 1.42157 184.944 1.64706 186.414 1.94118C187.885 2.21569 189.206 2.52941 190.378 2.88235C191.551 3.21569 192.491 3.55882 193.198 3.91176C193.347 3.9902 193.458 4.10784 193.533 4.26471C193.607 4.40196 193.644 4.54902 193.644 4.70588C193.644 4.98039 193.551 5.23529 193.365 5.47059C193.198 5.70588 192.956 5.82353 192.639 5.82353C192.453 5.82353 192.295 5.78431 192.165 5.70588C191.179 5.27451 190.081 4.89216 188.871 4.55882C187.68 4.20588 186.414 3.91176 185.075 3.67647C183.735 3.44118 182.348 3.26471 180.915 3.14706C179.501 3.0098 178.096 2.94118 176.7 2.94118C174.765 2.94118 172.913 3.05882 171.145 3.29412C169.377 3.52941 167.814 3.93137 166.456 4.5C165.116 5.04902 164.046 5.79412 163.245 6.73529C162.445 7.65686 162.045 8.82353 162.045 10.2353C162.045 11.3137 162.361 12.1961 162.994 12.8824C163.645 13.549 164.52 14.0882 165.618 14.5C166.716 14.9118 168 15.2255 169.47 15.4412C170.94 15.6373 172.494 15.7941 174.132 15.9118C175.788 16.0294 177.491 16.1373 179.24 16.2353C180.99 16.3137 182.683 16.4608 184.321 16.6765C185.977 16.8725 187.54 17.1569 189.01 17.5294C190.481 17.8824 191.765 18.3824 192.863 19.0294C193.961 19.6765 194.826 20.5098 195.459 21.5294C196.11 22.5294 196.436 23.7647 196.436 25.2353Z"/>
<path d="M243.796 31.7353L259.735 3.08824C259.94 2.71569 260.154 2.39216 260.377 2.11765C260.6 1.84314 260.842 1.68627 261.103 1.64706C261.456 1.64706 261.708 1.76471 261.857 2C262.005 2.23529 262.08 2.46078 262.08 2.67647C262.08 2.89216 262.015 3.12745 261.884 3.38235C261.773 3.61765 261.642 3.86275 261.494 4.11765L245.219 33.3529C245.015 33.7059 244.782 33.9706 244.522 34.1471C244.28 34.3039 244.028 34.3824 243.768 34.3824C243.21 34.3824 242.735 34.0392 242.344 33.3529L226.014 4.11765C225.865 3.84314 225.735 3.58824 225.623 3.35294C225.53 3.09804 225.484 2.85294 225.484 2.61765C225.484 2.46078 225.558 2.26471 225.707 2.02941C225.856 1.77451 226.089 1.64706 226.405 1.64706C226.721 1.68627 226.982 1.84314 227.187 2.11765C227.41 2.39216 227.624 2.71569 227.829 3.08824L243.796 31.7353Z"/>
<path d="M302.578 33.3529C302.578 33.6471 302.532 33.8627 302.439 34C302.346 34.1373 302.215 34.2353 302.048 34.2941C301.899 34.3529 301.713 34.3824 301.49 34.3824C301.266 34.3824 301.015 34.3824 300.736 34.3824H274.664C274.478 34.3824 274.338 34.3726 274.245 34.3529C274.152 34.3333 274.077 34.2843 274.022 34.2059C273.984 34.1275 273.957 34.0294 273.938 33.9118C273.938 33.7745 273.938 33.5882 273.938 33.3529V3C273.938 2.70588 273.938 2.47059 273.938 2.29412C273.957 2.11765 273.994 1.98039 274.05 1.88235C274.105 1.78431 274.198 1.71569 274.329 1.67647C274.478 1.63725 274.692 1.61765 274.971 1.61765H300.457C300.736 1.61765 300.997 1.61765 301.238 1.61765C301.48 1.61765 301.694 1.64706 301.88 1.70588C302.085 1.76471 302.243 1.86275 302.355 2C302.467 2.13725 302.522 2.35294 302.522 2.64706C302.522 2.88235 302.467 3.06863 302.355 3.20588C302.243 3.32353 302.085 3.41176 301.88 3.47059C301.694 3.52941 301.48 3.55882 301.238 3.55882C300.997 3.55882 300.736 3.55882 300.457 3.55882H276.311V16.4412H300.317C300.727 16.4412 301.071 16.5 301.35 16.6176C301.629 16.7353 301.769 16.9902 301.769 17.3824C301.769 17.8137 301.648 18.098 301.406 18.2353C301.183 18.3725 300.885 18.4412 300.513 18.4412H276.311V32.4412H300.513C300.792 32.4412 301.052 32.4412 301.294 32.4412C301.536 32.4412 301.75 32.4706 301.936 32.5294C302.141 32.5882 302.299 32.6863 302.411 32.8235C302.523 32.9412 302.578 33.1176 302.578 33.3529Z"/>
<path d="M347.292 30.6176V3.85294C347.292 3.55882 347.301 3.28431 347.32 3.02941C347.339 2.7549 347.385 2.51961 347.459 2.32353C347.553 2.10784 347.673 1.94118 347.822 1.82353C347.99 1.68627 348.213 1.61765 348.492 1.61765C348.976 1.61765 349.293 1.84314 349.441 2.29412C349.59 2.72549 349.665 3.2451 349.665 3.85294V32.5C349.665 33.7549 349.348 34.3824 348.716 34.3824C348.288 34.3824 347.757 34.0784 347.124 33.4706L318.345 5.38235V32.3235C318.345 32.8922 318.261 33.3824 318.093 33.7941C317.944 34.1863 317.647 34.3824 317.2 34.3824C316.66 34.3824 316.316 34.1863 316.167 33.7941C316.037 33.3824 315.972 32.8922 315.972 32.3235V3.52941C315.972 2.94118 316.074 2.4902 316.279 2.17647C316.484 1.86275 316.763 1.70588 317.116 1.70588C317.582 1.70588 318.121 2 318.735 2.58824L347.292 30.6176Z"/>
<path d="M382.04 33.0588C385.073 33.0588 387.604 32.7549 389.633 32.1471C391.661 31.5196 393.28 30.5784 394.49 29.3235C395.718 28.0686 396.584 26.5 397.086 24.6176C397.589 22.7157 397.84 20.4804 397.84 17.9118V3.67647C397.84 3.16667 397.914 2.69608 398.063 2.26471C398.212 1.83333 398.519 1.61765 398.984 1.61765C399.263 1.61765 399.477 1.67647 399.626 1.79412C399.794 1.91176 399.915 2.06863 399.989 2.26471C400.082 2.46078 400.138 2.68627 400.157 2.94118C400.194 3.17647 400.212 3.42157 400.212 3.67647V17.9118C400.212 20.9706 399.831 23.5882 399.068 25.7647C398.324 27.9216 397.198 29.6863 395.69 31.0588C394.183 32.4314 392.285 33.4314 389.996 34.0588C387.725 34.6863 385.073 35 382.04 35C378.988 35 376.327 34.6863 374.056 34.0588C371.786 33.4314 369.888 32.4314 368.362 31.0588C366.836 29.6863 365.691 27.9216 364.928 25.7647C364.184 23.5882 363.812 20.9706 363.812 17.9118V3.67647C363.812 3.42157 363.821 3.17647 363.84 2.94118C363.877 2.68627 363.942 2.46078 364.035 2.26471C364.128 2.06863 364.249 1.91176 364.398 1.79412C364.565 1.67647 364.789 1.61765 365.068 1.61765C365.533 1.61765 365.831 1.83333 365.961 2.26471C366.11 2.69608 366.185 3.16667 366.185 3.67647V17.9118C366.185 20.4804 366.436 22.7157 366.938 24.6176C367.459 26.5 368.325 28.0686 369.534 29.3235C370.763 30.5784 372.391 31.5196 374.419 32.1471C376.448 32.7549 378.988 33.0588 382.04 33.0588Z"/>
<path d="M443 33.3529C443 33.6471 442.953 33.8627 442.86 34C442.767 34.1373 442.637 34.2353 442.47 34.2941C442.321 34.3529 442.135 34.3824 441.911 34.3824C441.688 34.3824 441.437 34.3824 441.158 34.3824H415.085C414.899 34.3824 414.76 34.3726 414.667 34.3529C414.574 34.3333 414.499 34.2843 414.443 34.2059C414.406 34.1275 414.378 34.0294 414.36 33.9118C414.36 33.7745 414.36 33.5882 414.36 33.3529V3C414.36 2.70588 414.36 2.47059 414.36 2.29412C414.378 2.11765 414.415 1.98039 414.471 1.88235C414.527 1.78431 414.62 1.71569 414.75 1.67647C414.899 1.63725 415.113 1.61765 415.392 1.61765H440.879C441.158 1.61765 441.418 1.61765 441.66 1.61765C441.902 1.61765 442.116 1.64706 442.302 1.70588C442.507 1.76471 442.665 1.86275 442.777 2C442.888 2.13725 442.944 2.35294 442.944 2.64706C442.944 2.88235 442.888 3.06863 442.777 3.20588C442.665 3.32353 442.507 3.41176 442.302 3.47059C442.116 3.52941 441.902 3.55882 441.66 3.55882C441.418 3.55882 441.158 3.55882 440.879 3.55882H416.732V16.4412H440.739C441.148 16.4412 441.493 16.5 441.772 16.6176C442.051 16.7353 442.19 16.9902 442.19 17.3824C442.19 17.8137 442.07 18.098 441.828 18.2353C441.604 18.3725 441.307 18.4412 440.934 18.4412H416.732V32.4412H440.934C441.213 32.4412 441.474 32.4412 441.716 32.4412C441.958 32.4412 442.172 32.4706 442.358 32.5294C442.563 32.5882 442.721 32.6863 442.833 32.8235C442.944 32.9412 443 33.1176 443 33.3529Z"/>
</mask>
<path d="M21.2381 30.2941L38.5452 2.88235C38.8243 2.43137 39.1035 2.10784 39.3826 1.91176C39.6804 1.71569 39.9688 1.61765 40.2479 1.61765C40.6015 1.61765 40.89 1.77451 41.1133 2.08824C41.3552 2.38235 41.4762 2.7549 41.4762 3.20588V32.3235C41.4762 32.8922 41.4111 33.3824 41.2808 33.7941C41.1505 34.1863 40.8155 34.3824 40.2759 34.3824C39.8106 34.3824 39.4943 34.1863 39.3268 33.7941C39.1779 33.3824 39.1035 32.8922 39.1035 32.3235V6.20588L22.6059 31.8529C22.1593 32.5196 21.7033 32.8529 21.2381 32.8529C20.7356 32.8529 20.2797 32.5196 19.8703 31.8529L3.37274 6.20588V32.3235C3.37274 32.8922 3.289 33.3824 3.12151 33.7941C2.97263 34.1863 2.66557 34.3824 2.20033 34.3824C1.66065 34.3824 1.32567 34.1863 1.1954 33.7941C1.06513 33.3824 1 32.8922 1 32.3235V3.20588C1 2.7549 1.11166 2.38235 1.33498 2.08824C1.5769 1.77451 1.87466 1.61765 2.22824 1.61765C2.48878 1.61765 2.75862 1.71569 3.03777 1.91176C3.33552 2.10784 3.63328 2.43137 3.93103 2.88235L21.2381 30.2941Z" fill="#FAFAFA"/>
<path d="M84.7662 33.3529C84.7662 33.6471 84.7197 33.8627 84.6266 34C84.5336 34.1373 84.4033 34.2353 84.2358 34.2941C84.0869 34.3529 83.9008 34.3824 83.6775 34.3824C83.4542 34.3824 83.2029 34.3824 82.9238 34.3824H56.8516C56.6655 34.3824 56.5259 34.3726 56.4328 34.3529C56.3398 34.3333 56.2654 34.2843 56.2095 34.2059C56.1723 34.1275 56.1444 34.0294 56.1258 33.9118C56.1258 33.7745 56.1258 33.5882 56.1258 33.3529V3C56.1258 2.70588 56.1258 2.47059 56.1258 2.29412C56.1444 2.11765 56.1816 1.98039 56.2374 1.88235C56.2933 1.78431 56.3863 1.71569 56.5166 1.67647C56.6655 1.63725 56.8795 1.61765 57.1586 1.61765H82.6447C82.9238 1.61765 83.1843 1.61765 83.4263 1.61765C83.6682 1.61765 83.8822 1.64706 84.0683 1.70588C84.273 1.76471 84.4312 1.86275 84.5429 2C84.6545 2.13725 84.7103 2.35294 84.7103 2.64706C84.7103 2.88235 84.6545 3.06863 84.5429 3.20588C84.4312 3.32353 84.273 3.41176 84.0683 3.47059C83.8822 3.52941 83.6682 3.55882 83.4263 3.55882C83.1843 3.55882 82.9238 3.55882 82.6447 3.55882H58.4985V16.4412H82.5051C82.9145 16.4412 83.2588 16.5 83.5379 16.6176C83.8171 16.7353 83.9566 16.9902 83.9566 17.3824C83.9566 17.8137 83.8357 18.098 83.5938 18.2353C83.3704 18.3725 83.0727 18.4412 82.7005 18.4412H58.4985V32.4412H82.7005C82.9796 32.4412 83.2402 32.4412 83.4821 32.4412C83.724 32.4412 83.938 32.4706 84.1241 32.5294C84.3288 32.5882 84.487 32.6863 84.5987 32.8235C84.7104 32.9412 84.7662 33.1176 84.7662 33.3529Z" fill="#FAFAFA"/>
<path d="M129.48 30.6176V3.85294C129.48 3.55882 129.489 3.28431 129.508 3.02941C129.526 2.7549 129.573 2.51961 129.647 2.32353C129.74 2.10784 129.861 1.94118 130.01 1.82353C130.178 1.68627 130.401 1.61765 130.68 1.61765C131.164 1.61765 131.48 1.84314 131.629 2.29412C131.778 2.72549 131.853 3.2451 131.853 3.85294V32.5C131.853 33.7549 131.536 34.3824 130.903 34.3824C130.475 34.3824 129.945 34.0784 129.312 33.4706L100.532 5.38235V32.3235C100.532 32.8922 100.449 33.3824 100.281 33.7941C100.132 34.1863 99.8345 34.3824 99.3878 34.3824C98.8482 34.3824 98.5039 34.1863 98.355 33.7941C98.2247 33.3824 98.1596 32.8922 98.1596 32.3235V3.52941C98.1596 2.94118 98.262 2.4902 98.4667 2.17647C98.6714 1.86275 98.9505 1.70588 99.3041 1.70588C99.7693 1.70588 100.309 2 100.923 2.58824L129.48 30.6176Z" fill="#FAFAFA"/>
<path d="M144.213 7.08823H144.492C144.976 7.08823 145.302 7.01961 145.469 6.88235C145.637 6.72549 145.721 6.53922 145.721 6.32353C145.721 6.14706 145.674 5.95098 145.581 5.73529C145.507 5.51961 145.413 5.30392 145.302 5.08823C145.209 4.87255 145.106 4.67647 144.995 4.5C144.883 4.30392 144.799 4.14706 144.744 4.02941C144.65 3.85294 144.604 3.68627 144.604 3.52941C144.623 3.35294 144.613 3.20588 144.576 3.08824C144.576 2.46078 144.781 1.96078 145.19 1.58824C145.6 1.21569 146.074 1.02941 146.614 1.02941C146.893 1.02941 147.172 1.08824 147.451 1.20588C147.73 1.32353 147.972 1.51961 148.177 1.79412C148.4 2.04902 148.577 2.38235 148.707 2.79412C148.856 3.20588 148.931 3.70588 148.931 4.29412C148.931 4.92157 148.847 5.5098 148.679 6.05882C148.512 6.58824 148.261 7.04902 147.926 7.44118C147.609 7.83333 147.219 8.13725 146.753 8.35294C146.307 8.56863 145.786 8.67647 145.19 8.67647C144.874 8.67647 144.548 8.64706 144.213 8.58823V7.08823Z" fill="#FAFAFA"/>
<path d="M196.436 25.2353C196.436 26.4902 196.222 27.6078 195.794 28.5882C195.366 29.549 194.77 30.3922 194.007 31.1176C193.244 31.8235 192.332 32.4314 191.272 32.9412C190.229 33.4314 189.094 33.8333 187.866 34.1471C186.638 34.4412 185.326 34.6471 183.93 34.7647C182.553 34.902 181.157 34.9706 179.743 34.9706C177.752 34.9706 175.77 34.8627 173.797 34.6471C171.824 34.4314 169.982 34.1667 168.27 33.8529C166.558 33.5196 165.041 33.1667 163.72 32.7941C162.417 32.4216 161.431 32.0686 160.761 31.7353C160.5 31.598 160.305 31.4314 160.175 31.2353C160.063 31.0196 160.007 30.8039 160.007 30.5882C160.007 30.3529 160.063 30.1569 160.175 30C160.305 29.8235 160.491 29.7353 160.733 29.7353C160.845 29.7353 160.975 29.7647 161.124 29.8235C161.85 30.1373 162.892 30.4804 164.25 30.8529C165.609 31.2255 167.144 31.5784 168.856 31.9118C170.587 32.2255 172.42 32.4902 174.355 32.7059C176.309 32.9216 178.245 33.0294 180.162 33.0294C182.023 33.0294 183.79 32.902 185.465 32.6471C187.14 32.3922 188.61 31.9608 189.876 31.3529C191.16 30.7451 192.174 29.9412 192.919 28.9412C193.682 27.9412 194.063 26.7059 194.063 25.2353C194.063 24 193.737 22.9902 193.086 22.2059C192.453 21.402 191.588 20.7647 190.49 20.2941C189.392 19.8039 188.108 19.4412 186.638 19.2059C185.168 18.951 183.604 18.7647 181.948 18.6471C180.31 18.5098 178.617 18.4118 176.868 18.3529C175.118 18.2745 173.416 18.1569 171.759 18C170.122 17.8431 168.568 17.6176 167.098 17.3235C165.627 17.0294 164.343 16.598 163.245 16.0294C162.147 15.4608 161.273 14.7255 160.621 13.8235C159.989 12.9216 159.672 11.7843 159.672 10.4118C159.672 9.15686 159.896 8.04902 160.342 7.08823C160.789 6.12745 161.403 5.30392 162.185 4.61765C162.966 3.91176 163.887 3.33333 164.948 2.88235C166.027 2.41176 167.191 2.03922 168.437 1.76471C169.703 1.4902 171.024 1.29412 172.401 1.17647C173.797 1.05882 175.193 1 176.589 1C178.319 1 180.022 1.08824 181.697 1.26471C183.372 1.42157 184.944 1.64706 186.414 1.94118C187.885 2.21569 189.206 2.52941 190.378 2.88235C191.551 3.21569 192.491 3.55882 193.198 3.91176C193.347 3.9902 193.458 4.10784 193.533 4.26471C193.607 4.40196 193.644 4.54902 193.644 4.70588C193.644 4.98039 193.551 5.23529 193.365 5.47059C193.198 5.70588 192.956 5.82353 192.639 5.82353C192.453 5.82353 192.295 5.78431 192.165 5.70588C191.179 5.27451 190.081 4.89216 188.871 4.55882C187.68 4.20588 186.414 3.91176 185.075 3.67647C183.735 3.44118 182.348 3.26471 180.915 3.14706C179.501 3.0098 178.096 2.94118 176.7 2.94118C174.765 2.94118 172.913 3.05882 171.145 3.29412C169.377 3.52941 167.814 3.93137 166.456 4.5C165.116 5.04902 164.046 5.79412 163.245 6.73529C162.445 7.65686 162.045 8.82353 162.045 10.2353C162.045 11.3137 162.361 12.1961 162.994 12.8824C163.645 13.549 164.52 14.0882 165.618 14.5C166.716 14.9118 168 15.2255 169.47 15.4412C170.94 15.6373 172.494 15.7941 174.132 15.9118C175.788 16.0294 177.491 16.1373 179.24 16.2353C180.99 16.3137 182.683 16.4608 184.321 16.6765C185.977 16.8725 187.54 17.1569 189.01 17.5294C190.481 17.8824 191.765 18.3824 192.863 19.0294C193.961 19.6765 194.826 20.5098 195.459 21.5294C196.11 22.5294 196.436 23.7647 196.436 25.2353Z" fill="#FAFAFA"/>
<path d="M243.796 31.7353L259.735 3.08824C259.94 2.71569 260.154 2.39216 260.377 2.11765C260.6 1.84314 260.842 1.68627 261.103 1.64706C261.456 1.64706 261.708 1.76471 261.857 2C262.005 2.23529 262.08 2.46078 262.08 2.67647C262.08 2.89216 262.015 3.12745 261.884 3.38235C261.773 3.61765 261.642 3.86275 261.494 4.11765L245.219 33.3529C245.015 33.7059 244.782 33.9706 244.522 34.1471C244.28 34.3039 244.028 34.3824 243.768 34.3824C243.21 34.3824 242.735 34.0392 242.344 33.3529L226.014 4.11765C225.865 3.84314 225.735 3.58824 225.623 3.35294C225.53 3.09804 225.484 2.85294 225.484 2.61765C225.484 2.46078 225.558 2.26471 225.707 2.02941C225.856 1.77451 226.089 1.64706 226.405 1.64706C226.721 1.68627 226.982 1.84314 227.187 2.11765C227.41 2.39216 227.624 2.71569 227.829 3.08824L243.796 31.7353Z" fill="#FAFAFA"/>
<path d="M302.578 33.3529C302.578 33.6471 302.532 33.8627 302.439 34C302.346 34.1373 302.215 34.2353 302.048 34.2941C301.899 34.3529 301.713 34.3824 301.49 34.3824C301.266 34.3824 301.015 34.3824 300.736 34.3824H274.664C274.478 34.3824 274.338 34.3726 274.245 34.3529C274.152 34.3333 274.077 34.2843 274.022 34.2059C273.984 34.1275 273.957 34.0294 273.938 33.9118C273.938 33.7745 273.938 33.5882 273.938 33.3529V3C273.938 2.70588 273.938 2.47059 273.938 2.29412C273.957 2.11765 273.994 1.98039 274.05 1.88235C274.105 1.78431 274.198 1.71569 274.329 1.67647C274.478 1.63725 274.692 1.61765 274.971 1.61765H300.457C300.736 1.61765 300.997 1.61765 301.238 1.61765C301.48 1.61765 301.694 1.64706 301.88 1.70588C302.085 1.76471 302.243 1.86275 302.355 2C302.467 2.13725 302.522 2.35294 302.522 2.64706C302.522 2.88235 302.467 3.06863 302.355 3.20588C302.243 3.32353 302.085 3.41176 301.88 3.47059C301.694 3.52941 301.48 3.55882 301.238 3.55882C300.997 3.55882 300.736 3.55882 300.457 3.55882H276.311V16.4412H300.317C300.727 16.4412 301.071 16.5 301.35 16.6176C301.629 16.7353 301.769 16.9902 301.769 17.3824C301.769 17.8137 301.648 18.098 301.406 18.2353C301.183 18.3725 300.885 18.4412 300.513 18.4412H276.311V32.4412H300.513C300.792 32.4412 301.052 32.4412 301.294 32.4412C301.536 32.4412 301.75 32.4706 301.936 32.5294C302.141 32.5882 302.299 32.6863 302.411 32.8235C302.523 32.9412 302.578 33.1176 302.578 33.3529Z" fill="#FAFAFA"/>
<path d="M347.292 30.6176V3.85294C347.292 3.55882 347.301 3.28431 347.32 3.02941C347.339 2.7549 347.385 2.51961 347.459 2.32353C347.553 2.10784 347.673 1.94118 347.822 1.82353C347.99 1.68627 348.213 1.61765 348.492 1.61765C348.976 1.61765 349.293 1.84314 349.441 2.29412C349.59 2.72549 349.665 3.2451 349.665 3.85294V32.5C349.665 33.7549 349.348 34.3824 348.716 34.3824C348.288 34.3824 347.757 34.0784 347.124 33.4706L318.345 5.38235V32.3235C318.345 32.8922 318.261 33.3824 318.093 33.7941C317.944 34.1863 317.647 34.3824 317.2 34.3824C316.66 34.3824 316.316 34.1863 316.167 33.7941C316.037 33.3824 315.972 32.8922 315.972 32.3235V3.52941C315.972 2.94118 316.074 2.4902 316.279 2.17647C316.484 1.86275 316.763 1.70588 317.116 1.70588C317.582 1.70588 318.121 2 318.735 2.58824L347.292 30.6176Z" fill="#FAFAFA"/>
<path d="M382.04 33.0588C385.073 33.0588 387.604 32.7549 389.633 32.1471C391.661 31.5196 393.28 30.5784 394.49 29.3235C395.718 28.0686 396.584 26.5 397.086 24.6176C397.589 22.7157 397.84 20.4804 397.84 17.9118V3.67647C397.84 3.16667 397.914 2.69608 398.063 2.26471C398.212 1.83333 398.519 1.61765 398.984 1.61765C399.263 1.61765 399.477 1.67647 399.626 1.79412C399.794 1.91176 399.915 2.06863 399.989 2.26471C400.082 2.46078 400.138 2.68627 400.157 2.94118C400.194 3.17647 400.212 3.42157 400.212 3.67647V17.9118C400.212 20.9706 399.831 23.5882 399.068 25.7647C398.324 27.9216 397.198 29.6863 395.69 31.0588C394.183 32.4314 392.285 33.4314 389.996 34.0588C387.725 34.6863 385.073 35 382.04 35C378.988 35 376.327 34.6863 374.056 34.0588C371.786 33.4314 369.888 32.4314 368.362 31.0588C366.836 29.6863 365.691 27.9216 364.928 25.7647C364.184 23.5882 363.812 20.9706 363.812 17.9118V3.67647C363.812 3.42157 363.821 3.17647 363.84 2.94118C363.877 2.68627 363.942 2.46078 364.035 2.26471C364.128 2.06863 364.249 1.91176 364.398 1.79412C364.565 1.67647 364.789 1.61765 365.068 1.61765C365.533 1.61765 365.831 1.83333 365.961 2.26471C366.11 2.69608 366.185 3.16667 366.185 3.67647V17.9118C366.185 20.4804 366.436 22.7157 366.938 24.6176C367.459 26.5 368.325 28.0686 369.534 29.3235C370.763 30.5784 372.391 31.5196 374.419 32.1471C376.448 32.7549 378.988 33.0588 382.04 33.0588Z" fill="#FAFAFA"/>
<path d="M443 33.3529C443 33.6471 442.953 33.8627 442.86 34C442.767 34.1373 442.637 34.2353 442.47 34.2941C442.321 34.3529 442.135 34.3824 441.911 34.3824C441.688 34.3824 441.437 34.3824 441.158 34.3824H415.085C414.899 34.3824 414.76 34.3726 414.667 34.3529C414.574 34.3333 414.499 34.2843 414.443 34.2059C414.406 34.1275 414.378 34.0294 414.36 33.9118C414.36 33.7745 414.36 33.5882 414.36 33.3529V3C414.36 2.70588 414.36 2.47059 414.36 2.29412C414.378 2.11765 414.415 1.98039 414.471 1.88235C414.527 1.78431 414.62 1.71569 414.75 1.67647C414.899 1.63725 415.113 1.61765 415.392 1.61765H440.879C441.158 1.61765 441.418 1.61765 441.66 1.61765C441.902 1.61765 442.116 1.64706 442.302 1.70588C442.507 1.76471 442.665 1.86275 442.777 2C442.888 2.13725 442.944 2.35294 442.944 2.64706C442.944 2.88235 442.888 3.06863 442.777 3.20588C442.665 3.32353 442.507 3.41176 442.302 3.47059C442.116 3.52941 441.902 3.55882 441.66 3.55882C441.418 3.55882 441.158 3.55882 440.879 3.55882H416.732V16.4412H440.739C441.148 16.4412 441.493 16.5 441.772 16.6176C442.051 16.7353 442.19 16.9902 442.19 17.3824C442.19 17.8137 442.07 18.098 441.828 18.2353C441.604 18.3725 441.307 18.4412 440.934 18.4412H416.732V32.4412H440.934C441.213 32.4412 441.474 32.4412 441.716 32.4412C441.958 32.4412 442.172 32.4706 442.358 32.5294C442.563 32.5882 442.721 32.6863 442.833 32.8235C442.944 32.9412 443 33.1176 443 33.3529Z" fill="#FAFAFA"/>
<path d="M21.2381 30.2941L38.5452 2.88235C38.8243 2.43137 39.1035 2.10784 39.3826 1.91176C39.6804 1.71569 39.9688 1.61765 40.2479 1.61765C40.6015 1.61765 40.89 1.77451 41.1133 2.08824C41.3552 2.38235 41.4762 2.7549 41.4762 3.20588V32.3235C41.4762 32.8922 41.4111 33.3824 41.2808 33.7941C41.1505 34.1863 40.8155 34.3824 40.2759 34.3824C39.8106 34.3824 39.4943 34.1863 39.3268 33.7941C39.1779 33.3824 39.1035 32.8922 39.1035 32.3235V6.20588L22.6059 31.8529C22.1593 32.5196 21.7033 32.8529 21.2381 32.8529C20.7356 32.8529 20.2797 32.5196 19.8703 31.8529L3.37274 6.20588V32.3235C3.37274 32.8922 3.289 33.3824 3.12151 33.7941C2.97263 34.1863 2.66557 34.3824 2.20033 34.3824C1.66065 34.3824 1.32567 34.1863 1.1954 33.7941C1.06513 33.3824 1 32.8922 1 32.3235V3.20588C1 2.7549 1.11166 2.38235 1.33498 2.08824C1.5769 1.77451 1.87466 1.61765 2.22824 1.61765C2.48878 1.61765 2.75862 1.71569 3.03777 1.91176C3.33552 2.10784 3.63328 2.43137 3.93103 2.88235L21.2381 30.2941Z" stroke="white" mask="url(#path-1-outside-1_734_412)"/>
<path d="M84.7662 33.3529C84.7662 33.6471 84.7197 33.8627 84.6266 34C84.5336 34.1373 84.4033 34.2353 84.2358 34.2941C84.0869 34.3529 83.9008 34.3824 83.6775 34.3824C83.4542 34.3824 83.2029 34.3824 82.9238 34.3824H56.8516C56.6655 34.3824 56.5259 34.3726 56.4328 34.3529C56.3398 34.3333 56.2654 34.2843 56.2095 34.2059C56.1723 34.1275 56.1444 34.0294 56.1258 33.9118C56.1258 33.7745 56.1258 33.5882 56.1258 33.3529V3C56.1258 2.70588 56.1258 2.47059 56.1258 2.29412C56.1444 2.11765 56.1816 1.98039 56.2374 1.88235C56.2933 1.78431 56.3863 1.71569 56.5166 1.67647C56.6655 1.63725 56.8795 1.61765 57.1586 1.61765H82.6447C82.9238 1.61765 83.1843 1.61765 83.4263 1.61765C83.6682 1.61765 83.8822 1.64706 84.0683 1.70588C84.273 1.76471 84.4312 1.86275 84.5429 2C84.6545 2.13725 84.7103 2.35294 84.7103 2.64706C84.7103 2.88235 84.6545 3.06863 84.5429 3.20588C84.4312 3.32353 84.273 3.41176 84.0683 3.47059C83.8822 3.52941 83.6682 3.55882 83.4263 3.55882C83.1843 3.55882 82.9238 3.55882 82.6447 3.55882H58.4985V16.4412H82.5051C82.9145 16.4412 83.2588 16.5 83.5379 16.6176C83.8171 16.7353 83.9566 16.9902 83.9566 17.3824C83.9566 17.8137 83.8357 18.098 83.5938 18.2353C83.3704 18.3725 83.0727 18.4412 82.7005 18.4412H58.4985V32.4412H82.7005C82.9796 32.4412 83.2402 32.4412 83.4821 32.4412C83.724 32.4412 83.938 32.4706 84.1241 32.5294C84.3288 32.5882 84.487 32.6863 84.5987 32.8235C84.7104 32.9412 84.7662 33.1176 84.7662 33.3529Z" stroke="white" mask="url(#path-1-outside-1_734_412)"/>
<path d="M129.48 30.6176V3.85294C129.48 3.55882 129.489 3.28431 129.508 3.02941C129.526 2.7549 129.573 2.51961 129.647 2.32353C129.74 2.10784 129.861 1.94118 130.01 1.82353C130.178 1.68627 130.401 1.61765 130.68 1.61765C131.164 1.61765 131.48 1.84314 131.629 2.29412C131.778 2.72549 131.853 3.2451 131.853 3.85294V32.5C131.853 33.7549 131.536 34.3824 130.903 34.3824C130.475 34.3824 129.945 34.0784 129.312 33.4706L100.532 5.38235V32.3235C100.532 32.8922 100.449 33.3824 100.281 33.7941C100.132 34.1863 99.8345 34.3824 99.3878 34.3824C98.8482 34.3824 98.5039 34.1863 98.355 33.7941C98.2247 33.3824 98.1596 32.8922 98.1596 32.3235V3.52941C98.1596 2.94118 98.262 2.4902 98.4667 2.17647C98.6714 1.86275 98.9505 1.70588 99.3041 1.70588C99.7693 1.70588 100.309 2 100.923 2.58824L129.48 30.6176Z" stroke="white" mask="url(#path-1-outside-1_734_412)"/>
<path d="M144.213 7.08823H144.492C144.976 7.08823 145.302 7.01961 145.469 6.88235C145.637 6.72549 145.721 6.53922 145.721 6.32353C145.721 6.14706 145.674 5.95098 145.581 5.73529C145.507 5.51961 145.413 5.30392 145.302 5.08823C145.209 4.87255 145.106 4.67647 144.995 4.5C144.883 4.30392 144.799 4.14706 144.744 4.02941C144.65 3.85294 144.604 3.68627 144.604 3.52941C144.623 3.35294 144.613 3.20588 144.576 3.08824C144.576 2.46078 144.781 1.96078 145.19 1.58824C145.6 1.21569 146.074 1.02941 146.614 1.02941C146.893 1.02941 147.172 1.08824 147.451 1.20588C147.73 1.32353 147.972 1.51961 148.177 1.79412C148.4 2.04902 148.577 2.38235 148.707 2.79412C148.856 3.20588 148.931 3.70588 148.931 4.29412C148.931 4.92157 148.847 5.5098 148.679 6.05882C148.512 6.58824 148.261 7.04902 147.926 7.44118C147.609 7.83333 147.219 8.13725 146.753 8.35294C146.307 8.56863 145.786 8.67647 145.19 8.67647C144.874 8.67647 144.548 8.64706 144.213 8.58823V7.08823Z" stroke="white" mask="url(#path-1-outside-1_734_412)"/>
<path d="M196.436 25.2353C196.436 26.4902 196.222 27.6078 195.794 28.5882C195.366 29.549 194.77 30.3922 194.007 31.1176C193.244 31.8235 192.332 32.4314 191.272 32.9412C190.229 33.4314 189.094 33.8333 187.866 34.1471C186.638 34.4412 185.326 34.6471 183.93 34.7647C182.553 34.902 181.157 34.9706 179.743 34.9706C177.752 34.9706 175.77 34.8627 173.797 34.6471C171.824 34.4314 169.982 34.1667 168.27 33.8529C166.558 33.5196 165.041 33.1667 163.72 32.7941C162.417 32.4216 161.431 32.0686 160.761 31.7353C160.5 31.598 160.305 31.4314 160.175 31.2353C160.063 31.0196 160.007 30.8039 160.007 30.5882C160.007 30.3529 160.063 30.1569 160.175 30C160.305 29.8235 160.491 29.7353 160.733 29.7353C160.845 29.7353 160.975 29.7647 161.124 29.8235C161.85 30.1373 162.892 30.4804 164.25 30.8529C165.609 31.2255 167.144 31.5784 168.856 31.9118C170.587 32.2255 172.42 32.4902 174.355 32.7059C176.309 32.9216 178.245 33.0294 180.162 33.0294C182.023 33.0294 183.79 32.902 185.465 32.6471C187.14 32.3922 188.61 31.9608 189.876 31.3529C191.16 30.7451 192.174 29.9412 192.919 28.9412C193.682 27.9412 194.063 26.7059 194.063 25.2353C194.063 24 193.737 22.9902 193.086 22.2059C192.453 21.402 191.588 20.7647 190.49 20.2941C189.392 19.8039 188.108 19.4412 186.638 19.2059C185.168 18.951 183.604 18.7647 181.948 18.6471C180.31 18.5098 178.617 18.4118 176.868 18.3529C175.118 18.2745 173.416 18.1569 171.759 18C170.122 17.8431 168.568 17.6176 167.098 17.3235C165.627 17.0294 164.343 16.598 163.245 16.0294C162.147 15.4608 161.273 14.7255 160.621 13.8235C159.989 12.9216 159.672 11.7843 159.672 10.4118C159.672 9.15686 159.896 8.04902 160.342 7.08823C160.789 6.12745 161.403 5.30392 162.185 4.61765C162.966 3.91176 163.887 3.33333 164.948 2.88235C166.027 2.41176 167.191 2.03922 168.437 1.76471C169.703 1.4902 171.024 1.29412 172.401 1.17647C173.797 1.05882 175.193 1 176.589 1C178.319 1 180.022 1.08824 181.697 1.26471C183.372 1.42157 184.944 1.64706 186.414 1.94118C187.885 2.21569 189.206 2.52941 190.378 2.88235C191.551 3.21569 192.491 3.55882 193.198 3.91176C193.347 3.9902 193.458 4.10784 193.533 4.26471C193.607 4.40196 193.644 4.54902 193.644 4.70588C193.644 4.98039 193.551 5.23529 193.365 5.47059C193.198 5.70588 192.956 5.82353 192.639 5.82353C192.453 5.82353 192.295 5.78431 192.165 5.70588C191.179 5.27451 190.081 4.89216 188.871 4.55882C187.68 4.20588 186.414 3.91176 185.075 3.67647C183.735 3.44118 182.348 3.26471 180.915 3.14706C179.501 3.0098 178.096 2.94118 176.7 2.94118C174.765 2.94118 172.913 3.05882 171.145 3.29412C169.377 3.52941 167.814 3.93137 166.456 4.5C165.116 5.04902 164.046 5.79412 163.245 6.73529C162.445 7.65686 162.045 8.82353 162.045 10.2353C162.045 11.3137 162.361 12.1961 162.994 12.8824C163.645 13.549 164.52 14.0882 165.618 14.5C166.716 14.9118 168 15.2255 169.47 15.4412C170.94 15.6373 172.494 15.7941 174.132 15.9118C175.788 16.0294 177.491 16.1373 179.24 16.2353C180.99 16.3137 182.683 16.4608 184.321 16.6765C185.977 16.8725 187.54 17.1569 189.01 17.5294C190.481 17.8824 191.765 18.3824 192.863 19.0294C193.961 19.6765 194.826 20.5098 195.459 21.5294C196.11 22.5294 196.436 23.7647 196.436 25.2353Z" stroke="white" mask="url(#path-1-outside-1_734_412)"/>
<path d="M243.796 31.7353L259.735 3.08824C259.94 2.71569 260.154 2.39216 260.377 2.11765C260.6 1.84314 260.842 1.68627 261.103 1.64706C261.456 1.64706 261.708 1.76471 261.857 2C262.005 2.23529 262.08 2.46078 262.08 2.67647C262.08 2.89216 262.015 3.12745 261.884 3.38235C261.773 3.61765 261.642 3.86275 261.494 4.11765L245.219 33.3529C245.015 33.7059 244.782 33.9706 244.522 34.1471C244.28 34.3039 244.028 34.3824 243.768 34.3824C243.21 34.3824 242.735 34.0392 242.344 33.3529L226.014 4.11765C225.865 3.84314 225.735 3.58824 225.623 3.35294C225.53 3.09804 225.484 2.85294 225.484 2.61765C225.484 2.46078 225.558 2.26471 225.707 2.02941C225.856 1.77451 226.089 1.64706 226.405 1.64706C226.721 1.68627 226.982 1.84314 227.187 2.11765C227.41 2.39216 227.624 2.71569 227.829 3.08824L243.796 31.7353Z" stroke="white" mask="url(#path-1-outside-1_734_412)"/>
<path d="M302.578 33.3529C302.578 33.6471 302.532 33.8627 302.439 34C302.346 34.1373 302.215 34.2353 302.048 34.2941C301.899 34.3529 301.713 34.3824 301.49 34.3824C301.266 34.3824 301.015 34.3824 300.736 34.3824H274.664C274.478 34.3824 274.338 34.3726 274.245 34.3529C274.152 34.3333 274.077 34.2843 274.022 34.2059C273.984 34.1275 273.957 34.0294 273.938 33.9118C273.938 33.7745 273.938 33.5882 273.938 33.3529V3C273.938 2.70588 273.938 2.47059 273.938 2.29412C273.957 2.11765 273.994 1.98039 274.05 1.88235C274.105 1.78431 274.198 1.71569 274.329 1.67647C274.478 1.63725 274.692 1.61765 274.971 1.61765H300.457C300.736 1.61765 300.997 1.61765 301.238 1.61765C301.48 1.61765 301.694 1.64706 301.88 1.70588C302.085 1.76471 302.243 1.86275 302.355 2C302.467 2.13725 302.522 2.35294 302.522 2.64706C302.522 2.88235 302.467 3.06863 302.355 3.20588C302.243 3.32353 302.085 3.41176 301.88 3.47059C301.694 3.52941 301.48 3.55882 301.238 3.55882C300.997 3.55882 300.736 3.55882 300.457 3.55882H276.311V16.4412H300.317C300.727 16.4412 301.071 16.5 301.35 16.6176C301.629 16.7353 301.769 16.9902 301.769 17.3824C301.769 17.8137 301.648 18.098 301.406 18.2353C301.183 18.3725 300.885 18.4412 300.513 18.4412H276.311V32.4412H300.513C300.792 32.4412 301.052 32.4412 301.294 32.4412C301.536 32.4412 301.75 32.4706 301.936 32.5294C302.141 32.5882 302.299 32.6863 302.411 32.8235C302.523 32.9412 302.578 33.1176 302.578 33.3529Z" stroke="white" mask="url(#path-1-outside-1_734_412)"/>
<path d="M347.292 30.6176V3.85294C347.292 3.55882 347.301 3.28431 347.32 3.02941C347.339 2.7549 347.385 2.51961 347.459 2.32353C347.553 2.10784 347.673 1.94118 347.822 1.82353C347.99 1.68627 348.213 1.61765 348.492 1.61765C348.976 1.61765 349.293 1.84314 349.441 2.29412C349.59 2.72549 349.665 3.2451 349.665 3.85294V32.5C349.665 33.7549 349.348 34.3824 348.716 34.3824C348.288 34.3824 347.757 34.0784 347.124 33.4706L318.345 5.38235V32.3235C318.345 32.8922 318.261 33.3824 318.093 33.7941C317.944 34.1863 317.647 34.3824 317.2 34.3824C316.66 34.3824 316.316 34.1863 316.167 33.7941C316.037 33.3824 315.972 32.8922 315.972 32.3235V3.52941C315.972 2.94118 316.074 2.4902 316.279 2.17647C316.484 1.86275 316.763 1.70588 317.116 1.70588C317.582 1.70588 318.121 2 318.735 2.58824L347.292 30.6176Z" stroke="white" mask="url(#path-1-outside-1_734_412)"/>
<path d="M382.04 33.0588C385.073 33.0588 387.604 32.7549 389.633 32.1471C391.661 31.5196 393.28 30.5784 394.49 29.3235C395.718 28.0686 396.584 26.5 397.086 24.6176C397.589 22.7157 397.84 20.4804 397.84 17.9118V3.67647C397.84 3.16667 397.914 2.69608 398.063 2.26471C398.212 1.83333 398.519 1.61765 398.984 1.61765C399.263 1.61765 399.477 1.67647 399.626 1.79412C399.794 1.91176 399.915 2.06863 399.989 2.26471C400.082 2.46078 400.138 2.68627 400.157 2.94118C400.194 3.17647 400.212 3.42157 400.212 3.67647V17.9118C400.212 20.9706 399.831 23.5882 399.068 25.7647C398.324 27.9216 397.198 29.6863 395.69 31.0588C394.183 32.4314 392.285 33.4314 389.996 34.0588C387.725 34.6863 385.073 35 382.04 35C378.988 35 376.327 34.6863 374.056 34.0588C371.786 33.4314 369.888 32.4314 368.362 31.0588C366.836 29.6863 365.691 27.9216 364.928 25.7647C364.184 23.5882 363.812 20.9706 363.812 17.9118V3.67647C363.812 3.42157 363.821 3.17647 363.84 2.94118C363.877 2.68627 363.942 2.46078 364.035 2.26471C364.128 2.06863 364.249 1.91176 364.398 1.79412C364.565 1.67647 364.789 1.61765 365.068 1.61765C365.533 1.61765 365.831 1.83333 365.961 2.26471C366.11 2.69608 366.185 3.16667 366.185 3.67647V17.9118C366.185 20.4804 366.436 22.7157 366.938 24.6176C367.459 26.5 368.325 28.0686 369.534 29.3235C370.763 30.5784 372.391 31.5196 374.419 32.1471C376.448 32.7549 378.988 33.0588 382.04 33.0588Z" stroke="white" mask="url(#path-1-outside-1_734_412)"/>
<path d="M443 33.3529C443 33.6471 442.953 33.8627 442.86 34C442.767 34.1373 442.637 34.2353 442.47 34.2941C442.321 34.3529 442.135 34.3824 441.911 34.3824C441.688 34.3824 441.437 34.3824 441.158 34.3824H415.085C414.899 34.3824 414.76 34.3726 414.667 34.3529C414.574 34.3333 414.499 34.2843 414.443 34.2059C414.406 34.1275 414.378 34.0294 414.36 33.9118C414.36 33.7745 414.36 33.5882 414.36 33.3529V3C414.36 2.70588 414.36 2.47059 414.36 2.29412C414.378 2.11765 414.415 1.98039 414.471 1.88235C414.527 1.78431 414.62 1.71569 414.75 1.67647C414.899 1.63725 415.113 1.61765 415.392 1.61765H440.879C441.158 1.61765 441.418 1.61765 441.66 1.61765C441.902 1.61765 442.116 1.64706 442.302 1.70588C442.507 1.76471 442.665 1.86275 442.777 2C442.888 2.13725 442.944 2.35294 442.944 2.64706C442.944 2.88235 442.888 3.06863 442.777 3.20588C442.665 3.32353 442.507 3.41176 442.302 3.47059C442.116 3.52941 441.902 3.55882 441.66 3.55882C441.418 3.55882 441.158 3.55882 440.879 3.55882H416.732V16.4412H440.739C441.148 16.4412 441.493 16.5 441.772 16.6176C442.051 16.7353 442.19 16.9902 442.19 17.3824C442.19 17.8137 442.07 18.098 441.828 18.2353C441.604 18.3725 441.307 18.4412 440.934 18.4412H416.732V32.4412H440.934C441.213 32.4412 441.474 32.4412 441.716 32.4412C441.958 32.4412 442.172 32.4706 442.358 32.5294C442.563 32.5882 442.721 32.6863 442.833 32.8235C442.944 32.9412 443 33.1176 443 33.3529Z" stroke="white" mask="url(#path-1-outside-1_734_412)"/>
</svg>
