<svg width="9" height="9" viewBox="0 0 9 9" fill="none" xmlns="http://www.w3.org/2000/svg">
<g clip-path="url(#clip0_330_110)">
<path fill-rule="evenodd" clip-rule="evenodd" d="M2.68182 0.593206C3.06484 0.575574 3.18696 0.571655 4.16264 0.571655C5.13831 0.571655 5.26043 0.5759 5.64313 0.593206C6.02582 0.610512 6.28705 0.671574 6.51562 0.760063C6.75496 0.850512 6.97211 0.9919 7.1517 1.17476C7.33455 1.35402 7.47562 1.57084 7.56574 1.81051C7.65456 2.03908 7.71529 2.30031 7.73292 2.68235C7.75056 3.06602 7.75447 3.18814 7.75447 4.16349C7.75447 5.13917 7.75023 5.26129 7.73292 5.64431C7.71562 6.02635 7.65456 6.28757 7.56574 6.51614C7.47561 6.75585 7.33432 6.97303 7.1517 7.15255C6.97211 7.33541 6.75496 7.47647 6.51562 7.56659C6.28705 7.65541 6.02582 7.71614 5.64378 7.73378C5.26043 7.75141 5.13831 7.75533 4.16264 7.75533C3.18696 7.75533 3.06484 7.75108 2.68182 7.73378C2.29978 7.71647 2.03856 7.65541 1.80998 7.56659C1.57028 7.47646 1.35311 7.33517 1.17358 7.15255C0.990843 6.97318 0.849434 6.75611 0.759209 6.51647C0.670719 6.2879 0.609984 6.02668 0.592352 5.64463C0.574719 5.26096 0.570801 5.13884 0.570801 4.16349C0.570801 3.18782 0.575046 3.0657 0.592352 2.683C0.609658 2.30031 0.670719 2.03908 0.759209 1.81051C0.849567 1.57087 0.991084 1.3538 1.1739 1.17443C1.35318 0.991737 1.57014 0.850331 1.80966 0.760063C2.03823 0.671574 2.29978 0.610839 2.68182 0.593206ZM5.61407 1.23974C5.23529 1.22243 5.12166 1.21884 4.16264 1.21884C3.20362 1.21884 3.08998 1.22243 2.71121 1.23974C2.36084 1.25574 2.1708 1.31419 2.04411 1.36349C1.8766 1.4288 1.75676 1.50619 1.63105 1.6319C1.51188 1.74784 1.42017 1.88897 1.36264 2.04496C1.31333 2.17166 1.25488 2.3617 1.23888 2.71206C1.22158 3.09084 1.21798 3.20447 1.21798 4.16349C1.21798 5.12251 1.22158 5.23614 1.23888 5.61492C1.25488 5.96529 1.31333 6.15533 1.36264 6.28202C1.42011 6.43778 1.51186 6.57916 1.63105 6.69508C1.74696 6.81427 1.88835 6.90602 2.04411 6.96349C2.1708 7.0128 2.36084 7.07125 2.71121 7.08725C3.08998 7.10455 3.20329 7.10814 4.16264 7.10814C5.12198 7.10814 5.23529 7.10455 5.61407 7.08725C5.96443 7.07125 6.15447 7.0128 6.28117 6.96349C6.44868 6.89819 6.56851 6.8208 6.69423 6.69508C6.81341 6.57916 6.90517 6.43778 6.96264 6.28202C7.01194 6.15533 7.07039 5.96529 7.08639 5.61492C7.1037 5.23614 7.10729 5.12251 7.10729 4.16349C7.10729 3.20447 7.1037 3.09084 7.08639 2.71206C7.07039 2.3617 7.01194 2.17166 6.96264 2.04496C6.89733 1.87745 6.81994 1.75761 6.69423 1.6319C6.57829 1.51274 6.43715 1.42103 6.28117 1.36349C6.15447 1.31419 5.96443 1.25574 5.61407 1.23974ZM3.70386 5.27076C3.96008 5.37741 4.24537 5.39181 4.51102 5.31148C4.77667 5.23116 5.00619 5.0611 5.16039 4.83035C5.31458 4.5996 5.38388 4.32247 5.35645 4.0463C5.32902 3.77013 5.20656 3.51205 5.00998 3.31614C4.88467 3.19091 4.73316 3.09502 4.56634 3.03538C4.39952 2.97573 4.22155 2.95381 4.04525 2.9712C3.86894 2.98859 3.69869 3.04486 3.54674 3.13594C3.39479 3.22703 3.26492 3.35067 3.16649 3.49797C3.06806 3.64527 3.00352 3.81257 2.9775 3.98781C2.95148 4.16305 2.96465 4.34187 3.01604 4.51142C3.06743 4.68096 3.15577 4.837 3.27471 4.9683C3.39364 5.0996 3.54021 5.2029 3.70386 5.27076ZM2.85717 2.85802C3.0286 2.68659 3.23213 2.55059 3.45612 2.45781C3.68011 2.36503 3.92019 2.31728 4.16264 2.31728C4.40509 2.31728 4.64516 2.36503 4.86915 2.45781C5.09314 2.55059 5.29667 2.68659 5.46811 2.85802C5.63954 3.02946 5.77553 3.23298 5.86831 3.45698C5.9611 3.68097 6.00885 3.92104 6.00885 4.16349C6.00885 4.40594 5.9611 4.64601 5.86831 4.87001C5.77553 5.094 5.63954 5.29752 5.46811 5.46896C5.12187 5.81519 4.65228 6.0097 4.16264 6.0097C3.67299 6.0097 3.2034 5.81519 2.85717 5.46896C2.51094 5.12273 2.31642 4.65314 2.31642 4.16349C2.31642 3.67385 2.51094 3.20425 2.85717 2.85802ZM6.41831 2.59223C6.46079 2.55215 6.4948 2.50396 6.51833 2.4505C6.54185 2.39705 6.55441 2.33942 6.55526 2.28102C6.55611 2.22262 6.54524 2.16465 6.52328 2.11053C6.50133 2.05641 6.46874 2.00725 6.42744 1.96595C6.38614 1.92466 6.33698 1.89207 6.28286 1.87011C6.22874 1.84815 6.17077 1.83728 6.11237 1.83813C6.05398 1.83898 5.99635 1.85154 5.94289 1.87507C5.88944 1.89859 5.84124 1.9326 5.80117 1.97508C5.72323 2.05771 5.68056 2.16745 5.68221 2.28102C5.68387 2.39459 5.72972 2.50304 5.81003 2.58336C5.89035 2.66367 5.9988 2.70953 6.11237 2.71118C6.22594 2.71284 6.33569 2.67017 6.41831 2.59223Z" fill="white"/>
</g>
<defs>
<clipPath id="clip0_330_110">
<rect width="7.83673" height="7.83673" fill="white" transform="translate(0.244141 0.245117)"/>
</clipPath>
</defs>
</svg>
