<svg width="891" height="68" viewBox="0 0 891 68" fill="none" xmlns="http://www.w3.org/2000/svg">
<path d="M40.7967 58.5882L75.6849 3.76471C76.2476 2.86275 76.8103 2.21569 77.3731 1.82353C77.9733 1.43137 78.5548 1.23529 79.1175 1.23529C79.8302 1.23529 80.4117 1.54902 80.8619 2.17647C81.3496 2.76471 81.5934 3.5098 81.5934 4.41176V62.6471C81.5934 63.7843 81.4621 64.7647 81.1995 65.5882C80.9369 66.3726 80.2617 66.7647 79.1737 66.7647C78.2359 66.7647 77.5981 66.3726 77.2605 65.5882C76.9604 64.7647 76.8103 63.7843 76.8103 62.6471V10.4118L43.554 61.7059C42.6537 63.0392 41.7346 63.7059 40.7967 63.7059C39.7838 63.7059 38.8647 63.0392 38.0394 61.7059L4.78306 10.4118V62.6471C4.78306 63.7843 4.61425 64.7647 4.27662 65.5882C3.97651 66.3726 3.35752 66.7647 2.41967 66.7647C1.33175 66.7647 0.656499 66.3726 0.393899 65.5882C0.1313 64.7647 0 63.7843 0 62.6471V4.41176C0 3.5098 0.225085 2.76471 0.675256 2.17647C1.16294 1.54902 1.76317 1.23529 2.47594 1.23529C3.00114 1.23529 3.54509 1.43137 4.10781 1.82353C4.70803 2.21569 5.30826 2.86275 5.90849 3.76471L40.7967 58.5882Z" fill="white"/>
<path d="M168.859 64.7059C168.859 65.2941 168.765 65.7255 168.578 66C168.39 66.2745 168.127 66.4706 167.79 66.5882C167.49 66.7059 167.115 66.7647 166.664 66.7647C166.214 66.7647 165.708 66.7647 165.145 66.7647H112.588C112.213 66.7647 111.931 66.7451 111.744 66.7059C111.556 66.6667 111.406 66.5686 111.293 66.4118C111.218 66.2549 111.162 66.0588 111.125 65.8235C111.125 65.549 111.125 65.1765 111.125 64.7059V4C111.125 3.41176 111.125 2.94118 111.125 2.58824C111.162 2.23529 111.237 1.96078 111.35 1.76471C111.462 1.56863 111.65 1.43137 111.912 1.35294C112.213 1.27451 112.644 1.23529 113.207 1.23529H164.582C165.145 1.23529 165.67 1.23529 166.158 1.23529C166.646 1.23529 167.077 1.29412 167.452 1.41176C167.865 1.52941 168.184 1.72549 168.409 2C168.634 2.27451 168.746 2.70588 168.746 3.29412C168.746 3.76471 168.634 4.13725 168.409 4.41176C168.184 4.64706 167.865 4.82353 167.452 4.94118C167.077 5.05882 166.646 5.11765 166.158 5.11765C165.67 5.11765 165.145 5.11765 164.582 5.11765H115.908V30.8824H164.301C165.126 30.8824 165.82 31 166.383 31.2353C166.946 31.4706 167.227 31.9804 167.227 32.7647C167.227 33.6275 166.983 34.1961 166.496 34.4706C166.045 34.7451 165.445 34.8824 164.695 34.8824H115.908V62.8824H164.695C165.258 62.8824 165.783 62.8824 166.27 62.8824C166.758 62.8824 167.19 62.9412 167.565 63.0588C167.977 63.1765 168.296 63.3725 168.521 63.6471C168.746 63.8824 168.859 64.2353 168.859 64.7059Z" fill="white"/>
<path d="M258.994 59.2353V5.70588C258.994 5.11765 259.013 4.56863 259.051 4.05882C259.088 3.5098 259.182 3.03922 259.332 2.64706C259.52 2.21569 259.763 1.88235 260.063 1.64706C260.401 1.37255 260.851 1.23529 261.414 1.23529C262.389 1.23529 263.027 1.68627 263.327 2.58824C263.627 3.45098 263.777 4.4902 263.777 5.70588V63C263.777 65.5098 263.14 66.7647 261.864 66.7647C261.001 66.7647 259.932 66.1569 258.657 64.9412L200.641 8.76471V62.6471C200.641 63.7843 200.472 64.7647 200.135 65.5882C199.834 66.3726 199.234 66.7647 198.334 66.7647C197.246 66.7647 196.552 66.3726 196.252 65.5882C195.989 64.7647 195.858 63.7843 195.858 62.6471V5.05882C195.858 3.88235 196.064 2.98039 196.477 2.35294C196.89 1.72549 197.452 1.41176 198.165 1.41176C199.103 1.41176 200.191 2 201.429 3.17647L258.994 59.2353Z" fill="white"/>
<path d="M288.694 12.1765H289.257C290.232 12.1765 290.889 12.0392 291.227 11.7647C291.564 11.451 291.733 11.0784 291.733 10.6471C291.733 10.2941 291.639 9.90196 291.452 9.47059C291.302 9.03922 291.114 8.60784 290.889 8.17647C290.701 7.7451 290.495 7.35294 290.27 7C290.045 6.60784 289.876 6.29412 289.764 6.05882C289.576 5.70588 289.482 5.37255 289.482 5.05882C289.52 4.70588 289.501 4.41176 289.426 4.17647C289.426 2.92157 289.839 1.92157 290.664 1.17647C291.489 0.431373 292.446 0.0588235 293.534 0.0588235C294.096 0.0588235 294.659 0.176471 295.222 0.411765C295.785 0.647059 296.272 1.03922 296.685 1.58824C297.135 2.09804 297.491 2.76471 297.754 3.58824C298.054 4.41176 298.204 5.41176 298.204 6.58824C298.204 7.84314 298.035 9.01961 297.698 10.1176C297.36 11.1765 296.854 12.098 296.178 12.8824C295.541 13.6667 294.753 14.2745 293.815 14.7059C292.915 15.1373 291.864 15.3529 290.664 15.3529C290.026 15.3529 289.37 15.2941 288.694 15.1765V12.1765Z" fill="white"/>
<path d="M393.967 48.4706C393.967 50.9804 393.535 53.2157 392.672 55.1765C391.81 57.098 390.609 58.7843 389.071 60.2353C387.533 61.6471 385.695 62.8627 383.556 63.8824C381.456 64.8627 379.167 65.6667 376.691 66.2941C374.215 66.8824 371.571 67.2941 368.757 67.5294C365.981 67.8039 363.168 67.9412 360.316 67.9412C356.302 67.9412 352.307 67.7255 348.331 67.2941C344.354 66.8627 340.64 66.3333 337.189 65.7059C333.738 65.0392 330.68 64.3333 328.017 63.5882C325.391 62.8431 323.403 62.1373 322.052 61.4706C321.527 61.1961 321.133 60.8628 320.87 60.4706C320.645 60.0392 320.533 59.6078 320.533 59.1765C320.533 58.7059 320.645 58.3137 320.87 58C321.133 57.6471 321.508 57.4706 321.996 57.4706C322.221 57.4706 322.483 57.5294 322.784 57.6471C324.247 58.2745 326.347 58.9608 329.086 59.7059C331.824 60.451 334.919 61.1569 338.371 61.8235C341.86 62.451 345.555 62.9804 349.456 63.4118C353.395 63.8431 357.297 64.0588 361.161 64.0588C364.912 64.0588 368.476 63.8039 371.852 63.2941C375.228 62.7843 378.192 61.9216 380.743 60.7059C383.331 59.4902 385.376 57.8824 386.877 55.8824C388.415 53.8824 389.184 51.4118 389.184 48.4706C389.184 46 388.527 43.9804 387.214 42.4118C385.939 40.8039 384.194 39.5294 381.981 38.5882C379.768 37.6078 377.179 36.8824 374.216 36.4118C371.252 35.902 368.101 35.5294 364.762 35.2941C361.461 35.0196 358.047 34.8235 354.521 34.7059C350.994 34.549 347.562 34.3137 344.223 34C340.922 33.6863 337.789 33.2353 334.826 32.6471C331.862 32.0588 329.273 31.1961 327.06 30.0588C324.847 28.9216 323.084 27.451 321.771 25.6471C320.495 23.8431 319.857 21.5686 319.857 18.8235C319.857 16.3137 320.308 14.098 321.208 12.1765C322.108 10.2549 323.346 8.60784 324.922 7.23529C326.497 5.82353 328.354 4.66667 330.493 3.76471C332.669 2.82353 335.013 2.07843 337.527 1.52941C340.078 0.980392 342.741 0.588235 345.517 0.352941C348.331 0.117647 351.144 0 353.958 0C357.447 0 360.879 0.176471 364.255 0.529412C367.632 0.843137 370.802 1.29412 373.765 1.88235C376.729 2.43137 379.392 3.05882 381.756 3.76471C384.119 4.43137 386.014 5.11765 387.439 5.82353C387.739 5.98039 387.964 6.21569 388.115 6.52941C388.265 6.80392 388.34 7.09804 388.34 7.41176C388.34 7.96078 388.152 8.47059 387.777 8.94118C387.439 9.41177 386.952 9.64706 386.314 9.64706C385.939 9.64706 385.62 9.56863 385.357 9.41177C383.369 8.54902 381.156 7.78431 378.717 7.11765C376.316 6.41176 373.765 5.82353 371.064 5.35294C368.363 4.88235 365.568 4.52941 362.68 4.29412C359.829 4.01961 356.996 3.88235 354.183 3.88235C350.281 3.88235 346.549 4.11765 342.985 4.58824C339.421 5.05882 336.27 5.86275 333.531 7C330.83 8.09804 328.673 9.58824 327.06 11.4706C325.447 13.3137 324.64 15.6471 324.64 18.4706C324.64 20.6275 325.278 22.3922 326.554 23.7647C327.867 25.098 329.63 26.1765 331.843 27C334.057 27.8235 336.645 28.451 339.609 28.8824C342.572 29.2745 345.705 29.5882 349.006 29.8235C352.345 30.0588 355.777 30.2745 359.304 30.4706C362.83 30.6275 366.244 30.9216 369.545 31.3529C372.884 31.7451 376.035 32.3137 378.999 33.0588C381.962 33.7647 384.551 34.7647 386.764 36.0588C388.977 37.3529 390.722 39.0196 391.997 41.0588C393.31 43.0588 393.967 45.5294 393.967 48.4706Z" fill="white"/>
<path d="M489.437 61.4706L521.568 4.17647C521.98 3.43137 522.412 2.78431 522.862 2.23529C523.312 1.68627 523.8 1.37255 524.325 1.29412C525.038 1.29412 525.544 1.52941 525.844 2C526.144 2.47059 526.294 2.92157 526.294 3.35294C526.294 3.78431 526.163 4.2549 525.9 4.76471C525.675 5.23529 525.413 5.72549 525.113 6.23529L492.306 64.7059C491.894 65.4118 491.425 65.9412 490.9 66.2941C490.412 66.6078 489.906 66.7647 489.38 66.7647C488.255 66.7647 487.298 66.0784 486.511 64.7059L453.592 6.23529C453.292 5.68627 453.029 5.17647 452.804 4.70588C452.617 4.19608 452.523 3.70588 452.523 3.23529C452.523 2.92157 452.673 2.52941 452.973 2.05882C453.273 1.54902 453.742 1.29412 454.38 1.29412C455.017 1.37255 455.543 1.68627 455.955 2.23529C456.405 2.78431 456.837 3.43137 457.249 4.17647L489.437 61.4706Z" fill="white"/>
<path d="M607.933 64.7059C607.933 65.2941 607.839 65.7255 607.651 66C607.464 66.2745 607.201 66.4706 606.864 66.5882C606.564 66.7059 606.188 66.7647 605.738 66.7647C605.288 66.7647 604.782 66.7647 604.219 66.7647H551.661C551.286 66.7647 551.005 66.7451 550.817 66.7059C550.63 66.6667 550.48 66.5686 550.367 66.4118C550.292 66.2549 550.236 66.0588 550.198 65.8235C550.198 65.549 550.198 65.1765 550.198 64.7059V4C550.198 3.41176 550.198 2.94118 550.198 2.58824C550.236 2.23529 550.311 1.96078 550.423 1.76471C550.536 1.56863 550.724 1.43137 550.986 1.35294C551.286 1.27451 551.718 1.23529 552.28 1.23529H603.656C604.219 1.23529 604.744 1.23529 605.232 1.23529C605.719 1.23529 606.151 1.29412 606.526 1.41176C606.939 1.52941 607.258 1.72549 607.483 2C607.708 2.27451 607.82 2.70588 607.82 3.29412C607.82 3.76471 607.708 4.13725 607.483 4.41176C607.258 4.64706 606.939 4.82353 606.526 4.94118C606.151 5.05882 605.719 5.11765 605.232 5.11765C604.744 5.11765 604.219 5.11765 603.656 5.11765H554.981V30.8824H603.375C604.2 30.8824 604.894 31 605.457 31.2353C606.02 31.4706 606.301 31.9804 606.301 32.7647C606.301 33.6275 606.057 34.1961 605.569 34.4706C605.119 34.7451 604.519 34.8824 603.769 34.8824H554.981V62.8824H603.769C604.331 62.8824 604.857 62.8824 605.344 62.8824C605.832 62.8824 606.263 62.9412 606.639 63.0588C607.051 63.1765 607.37 63.3725 607.595 63.6471C607.82 63.8824 607.933 64.2353 607.933 64.7059Z" fill="white"/>
<path d="M698.068 59.2353V5.70588C698.068 5.11765 698.087 4.56863 698.124 4.05882C698.162 3.5098 698.256 3.03922 698.406 2.64706C698.593 2.21569 698.837 1.88235 699.137 1.64706C699.475 1.37255 699.925 1.23529 700.488 1.23529C701.463 1.23529 702.101 1.68627 702.401 2.58824C702.701 3.45098 702.851 4.4902 702.851 5.70588V63C702.851 65.5098 702.213 66.7647 700.938 66.7647C700.075 66.7647 699.006 66.1569 697.731 64.9412L639.715 8.76471V62.6471C639.715 63.7843 639.546 64.7647 639.208 65.5882C638.908 66.3726 638.308 66.7647 637.408 66.7647C636.32 66.7647 635.626 66.3726 635.326 65.5882C635.063 64.7647 634.932 63.7843 634.932 62.6471V5.05882C634.932 3.88235 635.138 2.98039 635.551 2.35294C635.963 1.72549 636.526 1.41176 637.239 1.41176C638.177 1.41176 639.265 2 640.503 3.17647L698.068 59.2353Z" fill="white"/>
<path d="M768.115 64.1177C774.23 64.1177 779.331 63.5098 783.42 62.2941C787.51 61.0392 790.773 59.1569 793.212 56.6471C795.688 54.1373 797.432 51 798.445 47.2353C799.458 43.4314 799.964 38.9608 799.964 33.8235V5.35294C799.964 4.33333 800.114 3.39216 800.414 2.52941C800.715 1.66667 801.334 1.23529 802.271 1.23529C802.834 1.23529 803.266 1.35294 803.566 1.58824C803.903 1.82353 804.147 2.13726 804.297 2.52941C804.485 2.92157 804.597 3.37255 804.635 3.88235C804.71 4.35294 804.747 4.84314 804.747 5.35294V33.8235C804.747 39.9412 803.978 45.1765 802.44 49.5294C800.94 53.8431 798.67 57.3725 795.631 60.1176C792.593 62.8627 788.766 64.8627 784.152 66.1176C779.575 67.3725 774.23 68 768.115 68C761.962 68 756.598 67.3725 752.021 66.1176C747.444 64.8627 743.618 62.8627 740.542 60.1176C737.466 57.3725 735.159 53.8431 733.62 49.5294C732.12 45.1765 731.37 39.9412 731.37 33.8235V5.35294C731.37 4.84314 731.388 4.35294 731.426 3.88235C731.501 3.37255 731.632 2.92157 731.82 2.52941C732.007 2.13726 732.251 1.82353 732.551 1.58824C732.889 1.35294 733.339 1.23529 733.902 1.23529C734.84 1.23529 735.44 1.66667 735.702 2.52941C736.002 3.39216 736.153 4.33333 736.153 5.35294V33.8235C736.153 38.9608 736.659 43.4314 737.672 47.2353C738.722 51 740.467 54.1373 742.905 56.6471C745.381 59.1569 748.664 61.0392 752.753 62.2941C756.842 63.5098 761.962 64.1177 768.115 64.1177Z" fill="white"/>
<path d="M891 64.7059C891 65.2941 890.906 65.7255 890.719 66C890.531 66.2745 890.269 66.4706 889.931 66.5882C889.631 66.7059 889.256 66.7647 888.805 66.7647C888.355 66.7647 887.849 66.7647 887.286 66.7647H834.729C834.354 66.7647 834.072 66.7451 833.885 66.7059C833.697 66.6667 833.547 66.5686 833.434 66.4118C833.359 66.2549 833.303 66.0588 833.266 65.8235C833.266 65.549 833.266 65.1765 833.266 64.7059V4C833.266 3.41176 833.266 2.94118 833.266 2.58824C833.303 2.23529 833.378 1.96078 833.491 1.76471C833.603 1.56863 833.791 1.43137 834.053 1.35294C834.353 1.27451 834.785 1.23529 835.348 1.23529H886.723C887.286 1.23529 887.811 1.23529 888.299 1.23529C888.787 1.23529 889.218 1.29412 889.593 1.41176C890.006 1.52941 890.325 1.72549 890.55 2C890.775 2.27451 890.887 2.70588 890.887 3.29412C890.887 3.76471 890.775 4.13725 890.55 4.41176C890.325 4.64706 890.006 4.82353 889.593 4.94118C889.218 5.05882 888.787 5.11765 888.299 5.11765C887.811 5.11765 887.286 5.11765 886.723 5.11765H838.049V30.8824H886.442C887.267 30.8824 887.961 31 888.524 31.2353C889.087 31.4706 889.368 31.9804 889.368 32.7647C889.368 33.6275 889.124 34.1961 888.637 34.4706C888.186 34.7451 887.586 34.8824 886.836 34.8824H838.049V62.8824H886.836C887.399 62.8824 887.924 62.8824 888.411 62.8824C888.899 62.8824 889.331 62.9412 889.706 63.0588C890.118 63.1765 890.437 63.3725 890.662 63.6471C890.887 63.8824 891 64.2353 891 64.7059Z" fill="white"/>
</svg>
