<svg width="392" height="33" viewBox="0 0 392 33" fill="none" xmlns="http://www.w3.org/2000/svg">
<path d="M23.1009 24.3564C23.1009 25.8337 22.7316 27.1929 21.9929 28.4339C21.2838 29.6748 20.3087 30.6646 19.0678 31.4033C17.8268 32.142 16.4677 32.5113 14.9903 32.5113H0.320312V1.0439H14.5914C16.0688 1.0439 17.3393 1.44279 18.403 2.24055C19.4962 3.00877 20.3235 4.01336 20.8849 5.25433C21.4758 6.46576 21.7713 7.73627 21.7713 9.06588C21.7713 10.6614 21.3724 12.124 20.5747 13.4536C19.7769 14.7832 18.6689 15.7582 17.2507 16.3787C19.053 16.9106 20.4713 17.9152 21.5054 19.3925C22.5691 20.8699 23.1009 22.5245 23.1009 24.3564ZM21.594 24.2234C21.594 23.012 21.3133 21.8892 20.752 20.8551C20.2201 19.8209 19.4667 18.9789 18.4916 18.3288C17.5461 17.6492 16.4824 17.3095 15.3006 17.3095H1.87152V31.0931H14.9903C16.2017 31.0931 17.3097 30.7681 18.3143 30.118C19.3189 29.4385 20.1167 28.5816 20.7076 27.5475C21.2986 26.4838 21.594 25.3758 21.594 24.2234ZM1.87152 2.46215V15.9355H14.0596C15.271 15.9355 16.3347 15.6105 17.2507 14.9605C18.1962 14.3105 18.9348 13.4684 19.4667 12.4342C19.9985 11.4001 20.2644 10.3216 20.2644 9.19884C20.2644 7.98742 20.0133 6.87941 19.511 5.87482C19.0087 4.84068 18.2996 4.01336 17.3836 3.39288C16.4972 2.7724 15.4778 2.46215 14.3255 2.46215H1.87152Z" fill="white"/>
<path d="M43.2912 1.0439H44.6208L58.1385 32.5113H56.4987L51.845 21.6529H36.067L31.4134 32.5113H29.7292L43.2912 1.0439ZM51.3575 20.3232L43.956 2.994L36.5102 20.3232H51.3575Z" fill="white"/>
<path d="M67.6144 32.5113V1.0439H80.5559C81.8855 1.0439 83.0969 1.3246 84.1902 1.88599C85.2834 2.41783 86.2289 3.1565 87.0267 4.102C87.8244 5.01796 88.4449 6.0521 88.8881 7.20443C89.3313 8.32721 89.5529 9.47953 89.5529 10.6614C89.5529 12.2569 89.2279 13.7491 88.5779 15.1378C87.9278 16.5265 87.0267 17.6788 85.8743 18.5947C84.722 19.5107 83.3776 20.0425 81.8412 20.1903L89.7302 32.5113H87.9574L80.157 20.3676H69.1656V32.5113H67.6144ZM69.1656 18.9493H80.8218C82.2992 18.9493 83.5697 18.5504 84.6334 17.7527C85.7266 16.9549 86.5687 15.9208 87.1596 14.6502C87.7506 13.3797 88.046 12.0501 88.046 10.6614C88.046 9.24316 87.7062 7.91355 87.0267 6.67258C86.3471 5.40207 85.4311 4.3827 84.2788 3.61448C83.156 2.84626 81.9003 2.46215 80.5116 2.46215H69.1656V18.9493Z" fill="white"/>
<path d="M123.393 24.3564C123.393 25.8337 123.023 27.1929 122.285 28.4339C121.576 29.6748 120.601 30.6646 119.36 31.4033C118.119 32.142 116.76 32.5113 115.282 32.5113H100.612V1.0439H114.883C116.361 1.0439 117.631 1.44279 118.695 2.24055C119.788 3.00877 120.615 4.01336 121.177 5.25433C121.768 6.46576 122.063 7.73627 122.063 9.06588C122.063 10.6614 121.664 12.124 120.867 13.4536C120.069 14.7832 118.961 15.7582 117.543 16.3787C119.345 16.9106 120.763 17.9152 121.797 19.3925C122.861 20.8699 123.393 22.5245 123.393 24.3564ZM121.886 24.2234C121.886 23.012 121.605 21.8892 121.044 20.8551C120.512 19.8209 119.759 18.9789 118.784 18.3288C117.838 17.6492 116.774 17.3095 115.592 17.3095H102.163V31.0931H115.282C116.494 31.0931 117.602 30.7681 118.606 30.118C119.611 29.4385 120.409 28.5816 121 27.5475C121.59 26.4838 121.886 25.3758 121.886 24.2234ZM102.163 2.46215V15.9355H114.351C115.563 15.9355 116.627 15.6105 117.543 14.9605C118.488 14.3105 119.227 13.4684 119.759 12.4342C120.29 11.4001 120.556 10.3216 120.556 9.19884C120.556 7.98742 120.305 6.87941 119.803 5.87482C119.301 4.84068 118.591 4.01336 117.675 3.39288C116.789 2.7724 115.77 2.46215 114.617 2.46215H102.163Z" fill="white"/>
<path d="M155.002 31.0931V32.5113H134.216V1.0439H154.603V2.46215H135.767V15.7139H152.254V17.1322H135.767V31.0931H155.002Z" fill="white"/>
<path d="M165.915 32.5113V1.0439H178.857C180.186 1.0439 181.398 1.3246 182.491 1.88599C183.584 2.41783 184.53 3.1565 185.328 4.102C186.125 5.01796 186.746 6.0521 187.189 7.20443C187.632 8.32721 187.854 9.47953 187.854 10.6614C187.854 12.2569 187.529 13.7491 186.879 15.1378C186.229 16.5265 185.328 17.6788 184.175 18.5947C183.023 19.5107 181.679 20.0425 180.142 20.1903L188.031 32.5113H186.258L178.458 20.3676H167.467V32.5113H165.915ZM167.467 18.9493H179.123C180.6 18.9493 181.871 18.5504 182.934 17.7527C184.028 16.9549 184.87 15.9208 185.461 14.6502C186.051 13.3797 186.347 12.0501 186.347 10.6614C186.347 9.24316 186.007 7.91355 185.328 6.67258C184.648 5.40207 183.732 4.3827 182.58 3.61448C181.457 2.84626 180.201 2.46215 178.813 2.46215H167.467V18.9493Z" fill="white"/>
<path d="M236.709 32.5113L220.532 15.581C219.262 14.2218 218.242 13.0547 217.474 12.0797C216.706 11.1046 216.144 10.233 215.79 9.46476C215.465 8.69654 215.302 7.9431 215.302 7.20443C215.302 6.02255 215.627 4.94409 216.277 3.96904C216.957 2.96445 217.858 2.16668 218.981 1.57575C220.133 0.955262 221.418 0.64502 222.837 0.64502C224.166 0.64502 225.348 0.910942 226.382 1.44279C227.416 1.94508 228.214 2.63943 228.776 3.52584C229.367 4.3827 229.662 5.37252 229.662 6.4953C229.662 7.73627 229.278 8.8886 228.51 9.95229C227.742 10.9864 226.737 11.9615 225.496 12.8774C224.285 13.7934 222.984 14.7241 221.596 15.6696C220.325 16.5265 219.129 17.4129 218.006 18.3288C216.883 19.2448 215.982 20.2346 215.302 21.2983C214.652 22.3324 214.327 23.5291 214.327 24.8882C214.327 26.4247 214.756 27.6952 215.613 28.6998C216.469 29.6748 217.548 30.4135 218.848 30.9158C220.148 31.4181 221.448 31.6692 222.748 31.6692C224.521 31.6692 226.116 31.2851 227.535 30.5169C228.982 29.7191 230.209 28.6555 231.213 27.3259C232.247 25.9667 233.045 24.445 233.607 22.7609C234.168 21.0471 234.449 19.2743 234.449 17.4424H235.823C235.823 19.4221 235.512 21.3426 234.892 23.2041C234.271 25.036 233.37 26.6906 232.188 28.1679C231.006 29.6453 229.603 30.8124 227.978 31.6692C226.382 32.5261 224.58 32.9545 222.571 32.9545C220.916 32.9545 219.335 32.6443 217.829 32.0238C216.351 31.3738 215.14 30.443 214.194 29.2316C213.278 27.9907 212.82 26.5133 212.82 24.7996C212.82 23.2632 213.19 21.9188 213.928 20.7664C214.667 19.5846 215.642 18.5209 216.854 17.5754C218.065 16.6003 219.365 15.6401 220.754 14.6946C222.261 13.69 223.575 12.7592 224.698 11.9024C225.821 11.0455 226.693 10.1887 227.313 9.3318C227.934 8.47494 228.244 7.55899 228.244 6.58394C228.244 5.25433 227.727 4.1611 226.693 3.30424C225.658 2.41783 224.373 1.97463 222.837 1.97463C221.684 1.97463 220.65 2.211 219.734 2.68375C218.818 3.15651 218.094 3.79176 217.563 4.58953C217.031 5.38729 216.765 6.25893 216.765 7.20443C216.765 7.73627 216.883 8.31244 217.119 8.93292C217.356 9.52386 217.814 10.2773 218.493 11.1933C219.202 12.1092 220.222 13.2615 221.551 14.6502L238.748 32.5113H236.709Z" fill="white"/>
<path d="M281.931 5.69754C281.34 5.07705 280.734 4.54521 280.114 4.102C279.493 3.6588 278.828 3.30424 278.119 3.03832C277.41 2.7724 276.657 2.58034 275.859 2.46215C275.061 2.31442 274.19 2.24055 273.244 2.24055C269.905 2.24055 267.482 2.87581 265.976 4.14632C264.469 5.41684 263.715 7.11579 263.715 9.24316C263.715 10.691 264.04 11.8285 264.69 12.6558C265.34 13.4831 266.374 14.1479 267.793 14.6502C269.211 15.123 271.043 15.5957 273.288 16.0685C275.593 16.5412 277.587 17.0879 279.272 17.7083C280.956 18.3288 282.256 19.1709 283.172 20.2346C284.088 21.2983 284.546 22.7609 284.546 24.6223C284.546 25.9519 284.28 27.1338 283.748 28.1679C283.246 29.1725 282.507 30.0146 281.532 30.6942C280.557 31.3738 279.375 31.8908 277.986 32.2454C276.627 32.5704 275.106 32.7329 273.421 32.7329C271.737 32.7329 270.171 32.5704 268.723 32.2454C267.276 31.8908 265.916 31.359 264.646 30.6499C263.375 29.9408 262.179 29.0396 261.056 27.9463L261.987 26.794C262.696 27.5622 263.464 28.2418 264.291 28.8327C265.148 29.3941 266.049 29.8669 266.995 30.251C267.97 30.6351 268.989 30.9306 270.053 31.1374C271.146 31.3147 272.284 31.4033 273.466 31.4033C276.42 31.4033 278.74 30.8567 280.424 29.7635C282.138 28.6407 282.995 27.0008 282.995 24.8439C282.995 23.337 282.625 22.1404 281.887 21.254C281.148 20.338 280.025 19.5993 278.518 19.038C277.011 18.447 275.091 17.9152 272.757 17.4424C270.481 16.9697 268.546 16.4526 266.951 15.8912C265.385 15.3298 264.188 14.5468 263.361 13.5422C262.563 12.5376 262.164 11.1785 262.164 9.46476C262.164 7.60331 262.622 6.03733 263.538 4.76681C264.454 3.46675 265.739 2.4917 267.394 1.84167C269.048 1.16209 270.984 0.822301 273.2 0.822301C274.559 0.822301 275.8 0.955262 276.923 1.22118C278.045 1.48711 279.08 1.88599 280.025 2.41783C281 2.94968 281.916 3.6588 282.773 4.54521L281.931 5.69754Z" fill="white"/>
<path d="M318.785 1.0439V32.5113H317.278V17.1322H296.359V32.5113H294.808V1.0439H296.359V15.7139H317.278V1.0439H318.785Z" fill="white"/>
<path d="M344.242 32.7329C342.056 32.7329 340.061 32.2897 338.259 31.4033C336.457 30.4874 334.906 29.2759 333.605 27.7691C332.305 26.2622 331.301 24.5632 330.592 22.6722C329.883 20.7517 329.528 18.7868 329.528 16.7776C329.528 14.6798 329.897 12.6854 330.636 10.7944C331.375 8.87383 332.409 7.17488 333.738 5.69754C335.098 4.19065 336.664 3.00877 338.436 2.15191C340.239 1.2655 342.174 0.822301 344.242 0.822301C346.429 0.822301 348.423 1.28028 350.226 2.19623C352.028 3.11218 353.564 4.33838 354.835 5.87482C356.135 7.41126 357.14 9.12497 357.849 11.016C358.558 12.907 358.912 14.8275 358.912 16.7776C358.912 18.905 358.543 20.929 357.804 22.8495C357.066 24.7405 356.032 26.4394 354.702 27.9463C353.372 29.4237 351.806 30.5908 350.004 31.4476C348.231 32.3045 346.311 32.7329 344.242 32.7329ZM331.079 16.7776C331.079 18.6686 331.404 20.4857 332.054 22.229C332.704 23.9427 333.605 25.4792 334.758 26.8383C335.94 28.1975 337.328 29.2759 338.924 30.0737C340.549 30.8715 342.322 31.2704 344.242 31.2704C346.192 31.2704 347.98 30.8567 349.605 30.0294C351.23 29.2021 352.619 28.0941 353.771 26.7054C354.924 25.3167 355.81 23.7655 356.43 22.0517C357.051 20.338 357.361 18.58 357.361 16.7776C357.361 14.8866 357.036 13.0843 356.386 11.3705C355.736 9.62727 354.82 8.07606 353.638 6.7169C352.456 5.35775 351.053 4.27929 349.428 3.48152C347.832 2.68375 346.104 2.28487 344.242 2.28487C342.263 2.28487 340.46 2.69853 338.835 3.52584C337.24 4.35315 335.866 5.46116 334.714 6.84986C333.561 8.23857 332.66 9.78978 332.01 11.5035C331.389 13.2172 331.079 14.9753 331.079 16.7776Z" fill="white"/>
<path d="M369.633 32.5113V1.0439H382.53C383.83 1.0439 385.027 1.3246 386.12 1.88599C387.213 2.41783 388.159 3.1565 388.956 4.102C389.754 5.01796 390.375 6.0521 390.818 7.20443C391.29 8.32721 391.527 9.47953 391.527 10.6614C391.527 12.316 391.158 13.882 390.419 15.3594C389.68 16.8367 388.661 18.0481 387.361 18.9936C386.061 19.9096 384.539 20.3676 382.796 20.3676H371.184V32.5113H369.633ZM371.184 18.9493H382.751C384.258 18.9493 385.544 18.5504 386.607 17.7527C387.701 16.9253 388.528 15.8912 389.089 14.6502C389.68 13.3797 389.976 12.0501 389.976 10.6614C389.976 9.21361 389.636 7.86923 388.956 6.62826C388.277 5.38729 387.361 4.3827 386.208 3.61448C385.086 2.84626 383.845 2.46215 382.486 2.46215H371.184V18.9493Z" fill="white"/>
</svg>
